<svg width="5263" height="5262" viewBox="0 0 5263 5262" fill="none" xmlns="http://www.w3.org/2000/svg">
<rect x="0.929688" y="-0.000488281" width="5262" height="5262" fill="#F8F8F8" fill-opacity="0.972549"/>
<path d="M4881.08 409.6H124.473L2215.29 1977.65L333.554 4800.13L4724.27 4852.4L2974.67 3223.29L4881.08 409.6ZM4881.08 409.6L3548.19 1193.62" stroke="#080808" stroke-width="55.0928"/>
<mask id="path-3-outside-1_117_15" maskUnits="userSpaceOnUse" x="219.605" y="1558.79" width="4987" height="1988" fill="black">
<rect fill="white" x="219.605" y="1558.79" width="4987" height="1988"/>
<path fill-rule="evenodd" clip-rule="evenodd" d="M2944.35 3235C4288.68 2873.34 5274.84 2274.63 5147 1897.74C5019.16 1520.85 3825.73 1508.5 2481.4 1870.16C1137.08 2231.82 150.916 2830.53 278.755 3207.42C406.595 3584.31 1600.02 3596.66 2944.35 3235ZM2885.38 3168.46C4162.49 2824.88 5063.88 2247.79 4954.14 1924.27C4844.41 1600.75 3507.56 1649.46 2230.45 1993.04C953.341 2336.61 228.662 2868.46 338.4 3191.98C448.137 3515.5 1608.27 3512.03 2885.38 3168.46Z"/>
</mask>
<path fill-rule="evenodd" clip-rule="evenodd" d="M2944.35 3235C4288.68 2873.34 5274.84 2274.63 5147 1897.74C5019.16 1520.85 3825.73 1508.5 2481.4 1870.16C1137.08 2231.82 150.916 2830.53 278.755 3207.42C406.595 3584.31 1600.02 3596.66 2944.35 3235ZM2885.38 3168.46C4162.49 2824.88 5063.88 2247.79 4954.14 1924.27C4844.41 1600.75 3507.56 1649.46 2230.45 1993.04C953.341 2336.61 228.662 2868.46 338.4 3191.98C448.137 3515.5 1608.27 3512.03 2885.38 3168.46Z" fill="#F8F8F8" fill-opacity="0.972549"/>
<path d="M5147 1897.74L5102.02 1912.99L5102.02 1912.99L5147 1897.74ZM2944.35 3235L2932.01 3189.14L2932.01 3189.14L2944.35 3235ZM2481.4 1870.16L2469.06 1824.3L2469.06 1824.3L2481.4 1870.16ZM278.755 3207.42L233.779 3222.68L278.755 3207.42ZM4954.14 1924.27L4909.17 1939.52L4954.14 1924.27ZM2885.38 3168.46L2873.04 3122.59L2873.04 3122.59L2885.38 3168.46ZM2230.45 1993.04L2242.79 2038.9L2230.45 1993.04ZM338.4 3191.98L383.377 3176.72L383.377 3176.72L338.4 3191.98ZM5102.02 1912.99C5125.96 1983.58 5101.06 2074.15 5009.3 2184.45C4918.6 2293.49 4770.28 2411.76 4573.09 2531.48C4179.36 2770.52 3601.2 3009.11 2932.01 3189.14L2956.69 3280.86C3631.83 3099.23 4218.92 2857.63 4622.39 2612.68C4823.79 2490.4 4982.07 2365.72 5082.33 2245.2C5181.53 2125.94 5231.95 2000.34 5191.98 1882.48L5102.02 1912.99ZM2493.74 1916.02C3162.87 1736.01 3792.89 1649.55 4269.89 1654.48C4508.69 1656.96 4706.57 1682.32 4851.08 1728.78C4997.75 1775.94 5077.51 1840.73 5102.02 1912.99L5191.98 1882.48C5152.57 1766.3 5035.21 1688.21 4880.15 1638.36C4722.93 1587.81 4514.46 1562.02 4270.88 1559.5C3783.13 1554.46 3144.27 1642.65 2469.06 1824.3L2493.74 1916.02ZM323.732 3192.17C299.79 3121.58 324.696 3031.01 416.453 2920.71C507.159 2811.67 655.471 2693.4 852.664 2573.68C1246.4 2334.64 1824.56 2096.05 2493.74 1916.02L2469.06 1824.3C1793.92 2005.93 1206.84 2247.53 803.369 2492.48C601.961 2614.76 443.683 2739.44 343.428 2859.96C244.225 2979.22 193.801 3104.82 233.779 3222.68L323.732 3192.17ZM2932.01 3189.14C2262.89 3369.15 1632.87 3455.61 1155.86 3450.68C917.063 3448.21 719.189 3422.84 574.678 3376.38C428.009 3329.22 348.244 3264.43 323.732 3192.17L233.779 3222.68C273.187 3338.86 390.54 3416.95 545.604 3466.81C702.826 3517.36 911.299 3543.14 1154.88 3545.66C1642.63 3550.71 2281.48 3462.51 2956.69 3280.86L2932.01 3189.14ZM4909.17 1939.52C4928.22 1995.71 4906.73 2074.53 4820.57 2176.12C4736.13 2275.67 4598.56 2385.8 4415 2498.35C4048.52 2723.08 3508.35 2951.68 2873.04 3122.59L2897.72 3214.32C3539.51 3041.66 4088.6 2809.93 4464.66 2579.33C4652.37 2464.23 4799.39 2347.95 4893.01 2237.56C4984.9 2129.22 5034.93 2014.59 4999.12 1909.01L4909.17 1939.52ZM2242.79 2038.9C2878.33 1867.92 3528.12 1770.53 4031.44 1755.96C4283.41 1748.67 4496.32 1762.23 4651.6 1796.58C4729.31 1813.78 4790.3 1835.7 4834.02 1861.25C4877.82 1886.85 4900.41 1913.72 4909.17 1939.52L4999.12 1909.01C4980.44 1853.94 4937.25 1811.56 4881.95 1779.24C4826.57 1746.87 4755.13 1722.21 4672.12 1703.84C4505.97 1667.08 4284.28 1653.62 4028.69 1661.02C3516.87 1675.83 2859.68 1774.58 2218.11 1947.17L2242.79 2038.9ZM383.377 3176.72C362.969 3116.56 378.537 3038.95 446.697 2944.21C514.499 2849.96 629.531 2746.15 790.558 2639.64C1112.11 2426.95 1607.42 2209.83 2242.79 2038.9L2218.11 1947.17C1576.37 2119.82 1070.78 2340.41 738.156 2560.42C572.093 2670.26 446.711 2781.54 369.59 2888.74C292.827 2995.44 258.962 3105.64 293.423 3207.23L383.377 3176.72ZM2873.04 3122.59C2237.48 3293.58 1632.27 3379.55 1173.78 3382.89C944.219 3384.56 753.899 3365.48 615.708 3327.32C473.82 3288.15 402.601 3233.4 383.377 3176.72L293.423 3207.23C329.067 3312.32 444.016 3378.46 590.426 3418.89C740.532 3460.33 940.641 3479.57 1174.47 3477.87C1642.76 3474.46 2256.17 3386.91 2897.72 3214.32L2873.04 3122.59Z" fill="#F8F8F8" fill-opacity="0.972549" mask="url(#path-3-outside-1_117_15)"/>
<mask id="path-5-inside-2_117_15" fill="white">
<path fill-rule="evenodd" clip-rule="evenodd" d="M2854.53 3235C4198.86 2873.34 5185.02 2274.63 5057.18 1897.74C4929.34 1520.85 3735.92 1508.51 2391.59 1870.16C1047.26 2231.82 61.0995 2830.54 188.939 3207.43C316.779 3584.32 1510.21 3596.66 2854.53 3235ZM2795.56 3168.46C4072.68 2824.88 4974.07 2247.79 4864.33 1924.27C4754.59 1600.75 3417.75 1649.46 2140.64 1993.04C863.528 2336.62 138.849 2868.46 248.587 3191.98C358.324 3515.5 1518.45 3512.03 2795.56 3168.46Z"/>
</mask>
<path fill-rule="evenodd" clip-rule="evenodd" d="M2854.53 3235C4198.86 2873.34 5185.02 2274.63 5057.18 1897.74C4929.34 1520.85 3735.92 1508.51 2391.59 1870.16C1047.26 2231.82 61.0995 2830.54 188.939 3207.43C316.779 3584.32 1510.21 3596.66 2854.53 3235ZM2795.56 3168.46C4072.68 2824.88 4974.07 2247.79 4864.33 1924.27C4754.59 1600.75 3417.75 1649.46 2140.64 1993.04C863.528 2336.62 138.849 2868.46 248.587 3191.98C358.324 3515.5 1518.45 3512.03 2795.56 3168.46Z" fill="#080808"/>
<path d="M5057.18 1897.74L5030.2 1906.89L5030.2 1906.89L5057.18 1897.74ZM2854.53 3235L2847.13 3207.48L2847.13 3207.48L2854.53 3235ZM2391.59 1870.16L2398.99 1897.68L2398.99 1897.68L2391.59 1870.16ZM188.939 3207.43L215.925 3198.27L215.925 3198.27L188.939 3207.43ZM4864.33 1924.27L4837.34 1933.42L4864.33 1924.27ZM2795.56 3168.46L2802.97 3195.98L2802.97 3195.98L2795.56 3168.46ZM2140.64 1993.04L2148.04 2020.56L2140.64 1993.04ZM248.587 3191.98L221.601 3201.13L221.601 3201.13L248.587 3191.98ZM5030.2 1906.89C5057.35 1986.94 5027.34 2084.51 4934.09 2196.61C4841.47 2307.94 4691.17 2427.49 4493.13 2547.72C4097.45 2787.95 3517.51 3027.14 2847.13 3207.48L2861.94 3262.52C3535.89 3081.21 4121.19 2840.21 4522.71 2596.44C4723.28 2474.68 4879.56 2351.28 4977.9 2233.05C5075.62 2115.59 5120.94 1996.99 5084.17 1888.59L5030.2 1906.89ZM2398.99 1897.68C3069.33 1717.34 3701.12 1630.53 4180.27 1635.49C4420.03 1637.97 4620.02 1663.42 4767.07 1710.7C4915.42 1758.4 5002.71 1825.85 5030.2 1906.89L5084.17 1888.59C5047.74 1781.19 4937.9 1705.76 4784.52 1656.45C4629.84 1606.71 4423.49 1581.01 4180.86 1578.5C3695.26 1573.48 3058.17 1661.33 2384.18 1842.65L2398.99 1897.68ZM215.925 3198.27C188.776 3118.23 218.785 3020.66 312.032 2908.56C404.647 2797.22 554.953 2677.67 752.988 2557.44C1148.67 2317.22 1728.61 2078.03 2398.99 1897.68L2384.18 1842.65C1710.23 2023.96 1124.93 2264.95 723.412 2508.73C522.847 2630.49 366.562 2753.89 268.217 2872.11C170.503 2989.58 125.183 3108.18 161.953 3216.58L215.925 3198.27ZM2847.13 3207.48C2176.79 3387.82 1545 3474.63 1065.85 3469.68C826.094 3467.19 626.1 3441.75 479.047 3394.46C330.699 3346.77 243.416 3279.32 215.925 3198.27L161.953 3216.58C198.382 3323.98 308.218 3399.41 461.602 3448.72C616.282 3498.45 822.636 3524.15 1065.26 3526.66C1550.86 3531.69 2187.95 3443.84 2861.94 3262.52L2847.13 3207.48ZM4837.34 1933.42C4859.75 1999.48 4832.55 2085.47 4745.24 2188.41C4658.97 2290.13 4519.51 2401.48 4335.12 2514.55C3966.72 2740.45 3424.77 2969.68 2788.16 3140.94L2802.97 3195.98C3443.47 3023.66 3990.77 2792.56 4364.91 2563.14C4551.79 2448.54 4696.92 2333.49 4788.71 2225.28C4879.45 2118.28 4923.78 2010.81 4891.32 1915.12L4837.34 1933.42ZM2148.04 2020.56C2784.79 1849.25 3436.06 1751.59 3941.07 1736.98C4193.77 1729.67 4408.44 1743.2 4565.9 1778.04C4644.66 1795.46 4707.74 1817.93 4753.79 1844.85C4799.89 1871.79 4826.61 1901.76 4837.34 1933.42L4891.32 1915.12C4874.62 1865.89 4835.55 1826.62 4782.55 1795.64C4729.5 1764.64 4660.15 1740.52 4578.21 1722.39C4414.23 1686.11 4194.29 1672.63 3939.42 1680.01C3429.31 1694.77 2773.6 1793.25 2133.23 1965.52L2148.04 2020.56ZM275.573 3182.83C252.354 3114.38 271.582 3030.25 341.463 2933.12C411.129 2836.28 528.23 2730.97 690.265 2623.8C1014.04 2409.65 1511.4 2191.83 2148.04 2020.56L2133.23 1965.52C1492.77 2137.82 989.236 2357.72 658.824 2576.26C493.767 2685.44 370.456 2795.22 295.198 2899.83C220.156 3004.14 189.95 3107.82 221.601 3201.13L275.573 3182.83ZM2788.16 3140.94C2151.4 3312.25 1544.55 3398.53 1084.1 3401.89C853.69 3403.56 661.413 3384.45 520.838 3345.64C378.046 3306.21 298.081 3249.18 275.573 3182.83L221.601 3201.13C253.961 3296.54 360.164 3360.4 505.669 3400.57C653.393 3441.36 851.543 3460.57 1084.52 3458.88C1550.85 3455.48 2162.62 3368.25 2802.97 3195.98L2788.16 3140.94Z" fill="#080808" mask="url(#path-5-inside-2_117_15)"/>
<path d="M4881.07 409.6H1378.95L228.996 1716.31H2790.25C3041.15 1758.12 3016.75 1960.22 2947.06 2082.18L228.996 4852.4H3731.12L4881.07 3597.96H2267.54C2016.65 3556.15 2093.31 3336.62 2163 3232.08L4881.07 409.6Z" fill="#080808"/>
</svg>
