<svg width="1074" height="98" viewBox="0 0 1074 98" fill="none" xmlns="http://www.w3.org/2000/svg">
<path d="M47.2191 2.063C47.4003 0.537592 49.6138 0.537592 49.7949 2.063L51.3133 14.8598C53.274 31.384 66.302 44.412 82.826 46.3727L95.6228 47.8911C97.1484 48.0722 97.1484 50.2857 95.6228 50.4669L82.826 51.9853C66.302 53.9459 53.274 66.9739 51.3133 83.498L49.7949 96.2948C49.6138 97.8204 47.4003 97.8204 47.2191 96.2948L45.7008 83.498C43.7401 66.9739 30.7121 53.9459 14.1879 51.9853L1.39113 50.4669C-0.134282 50.2857 -0.134282 48.0722 1.39113 47.8911L14.1879 46.3727C30.7121 44.412 43.7401 31.384 45.7008 14.8598L47.2191 2.063Z" fill="#080808"/>
<path d="M143.739 2.063C143.92 0.537592 146.133 0.537592 146.314 2.063L147.833 14.8598C149.794 31.384 162.822 44.412 179.346 46.3727L192.142 47.8911C193.668 48.0722 193.668 50.2857 192.142 50.4669L179.346 51.9853C162.822 53.9459 149.794 66.9739 147.833 83.498L146.314 96.2948C146.133 97.8204 143.92 97.8204 143.739 96.2948L142.22 83.498C140.26 66.9739 127.232 53.9459 110.707 51.9853L97.9107 50.4669C96.3852 50.2857 96.3852 48.0722 97.9107 47.8911L110.707 46.3727C127.232 44.412 140.26 31.384 142.22 14.8598L143.739 2.063Z" fill="#080808"/>
<path d="M240.259 2.063C240.44 0.537592 242.654 0.537592 242.835 2.063L244.353 14.8598C246.314 31.384 259.342 44.412 275.866 46.3727L288.663 47.8911C290.188 48.0722 290.188 50.2857 288.663 50.4669L275.866 51.9853C259.342 53.9459 246.314 66.9739 244.353 83.498L242.835 96.2948C242.654 97.8204 240.44 97.8204 240.259 96.2948L238.741 83.498C236.78 66.9739 223.752 53.9459 207.228 51.9853L194.431 50.4669C192.906 50.2857 192.906 48.0722 194.431 47.8911L207.228 46.3727C223.752 44.412 236.78 31.384 238.741 14.8598L240.259 2.063Z" fill="#080808"/>
<path d="M336.779 2.063C336.96 0.537592 339.173 0.537592 339.355 2.063L340.873 14.8598C342.834 31.384 355.862 44.412 372.386 46.3727L385.182 47.8911C386.708 48.0722 386.708 50.2857 385.182 50.4669L372.386 51.9853C355.862 53.9459 342.834 66.9739 340.873 83.498L339.355 96.2948C339.173 97.8204 336.96 97.8204 336.779 96.2948L335.26 83.498C333.3 66.9739 320.272 53.9459 303.748 51.9853L290.951 50.4669C289.425 50.2857 289.425 48.0722 290.951 47.8911L303.748 46.3727C320.272 44.412 333.3 31.384 335.26 14.8598L336.779 2.063Z" fill="#080808"/>
<path d="M433.299 2.063C433.48 0.537592 435.694 0.537592 435.875 2.063L437.393 14.8598C439.354 31.384 452.382 44.412 468.906 46.3727L481.703 47.8911C483.228 48.0722 483.228 50.2857 481.703 50.4669L468.906 51.9853C452.382 53.9459 439.354 66.9739 437.393 83.498L435.875 96.2948C435.694 97.8204 433.48 97.8204 433.299 96.2948L431.781 83.498C429.82 66.9739 416.792 53.9459 400.268 51.9853L387.471 50.4669C385.946 50.2857 385.946 48.0722 387.471 47.8911L400.268 46.3727C416.792 44.412 429.82 31.384 431.781 14.8598L433.299 2.063Z" fill="#080808"/>
<path d="M529.819 2.063C530 0.537592 532.213 0.537592 532.395 2.063L533.913 14.8598C535.874 31.384 548.902 44.412 565.426 46.3727L578.222 47.8911C579.748 48.0722 579.748 50.2857 578.222 50.4669L565.426 51.9853C548.902 53.9459 535.874 66.9739 533.913 83.498L532.395 96.2948C532.213 97.8204 530 97.8204 529.819 96.2948L528.3 83.498C526.34 66.9739 513.312 53.9459 496.788 51.9853L483.991 50.4669C482.465 50.2857 482.465 48.0722 483.991 47.8911L496.788 46.3727C513.312 44.412 526.34 31.384 528.3 14.8598L529.819 2.063Z" fill="#080808"/>
<path d="M626.338 2.063C626.519 0.537592 628.733 0.537592 628.914 2.063L630.432 14.8598C632.393 31.384 645.421 44.412 661.945 46.3727L674.742 47.8911C676.268 48.0722 676.268 50.2857 674.742 50.4669L661.945 51.9853C645.421 53.9459 632.393 66.9739 630.432 83.498L628.914 96.2948C628.733 97.8204 626.519 97.8204 626.338 96.2948L624.82 83.498C622.859 66.9739 609.831 53.9459 593.307 51.9853L580.51 50.4669C578.985 50.2857 578.985 48.0722 580.51 47.8911L593.307 46.3727C609.831 44.412 622.859 31.384 624.82 14.8598L626.338 2.063Z" fill="#080808"/>
<path d="M722.859 2.063C723.04 0.537592 725.253 0.537592 725.435 2.063L726.953 14.8598C728.914 31.384 741.942 44.412 758.466 46.3727L771.262 47.8911C772.788 48.0722 772.788 50.2857 771.262 50.4669L758.466 51.9853C741.942 53.9459 728.914 66.9739 726.953 83.498L725.435 96.2948C725.253 97.8204 723.04 97.8204 722.859 96.2948L721.34 83.498C719.38 66.9739 706.352 53.9459 689.828 51.9853L677.031 50.4669C675.505 50.2857 675.505 48.0722 677.031 47.8911L689.828 46.3727C706.352 44.412 719.38 31.384 721.34 14.8598L722.859 2.063Z" fill="#080808"/>
<path d="M819.378 2.063C819.559 0.537592 821.773 0.537592 821.954 2.063L823.472 14.8598C825.433 31.384 838.461 44.412 854.985 46.3727L867.782 47.8911C869.308 48.0722 869.308 50.2857 867.782 50.4669L854.985 51.9853C838.461 53.9459 825.433 66.9739 823.472 83.498L821.954 96.2948C821.773 97.8204 819.559 97.8204 819.378 96.2948L817.86 83.498C815.899 66.9739 802.871 53.9459 786.347 51.9853L773.55 50.4669C772.025 50.2857 772.025 48.0722 773.55 47.8911L786.347 46.3727C802.871 44.412 815.899 31.384 817.86 14.8598L819.378 2.063Z" fill="#080808"/>
<path d="M915.899 2.063C916.08 0.537592 918.293 0.537592 918.475 2.063L919.993 14.8598C921.954 31.384 934.982 44.412 951.506 46.3727L964.302 47.8911C965.828 48.0722 965.828 50.2857 964.302 50.4669L951.506 51.9853C934.982 53.9459 921.954 66.9739 919.993 83.498L918.475 96.2948C918.293 97.8204 916.08 97.8204 915.899 96.2948L914.38 83.498C912.42 66.9739 899.392 53.9459 882.868 51.9853L870.071 50.4669C868.545 50.2857 868.545 48.0722 870.071 47.8911L882.868 46.3727C899.392 44.412 912.42 31.384 914.38 14.8598L915.899 2.063Z" fill="#080808"/>
<path d="M1012.42 2.063C1012.6 0.537592 1014.81 0.537592 1014.99 2.063L1016.51 14.8598C1018.47 31.384 1031.5 44.412 1048.03 46.3727L1060.82 47.8911C1062.35 48.0722 1062.35 50.2857 1060.82 50.4669L1048.03 51.9853C1031.5 53.9459 1018.47 66.9739 1016.51 83.498L1014.99 96.2948C1014.81 97.8204 1012.6 97.8204 1012.42 96.2948L1010.9 83.498C1008.94 66.9739 995.911 53.9459 979.387 51.9853L966.59 50.4669C965.065 50.2857 965.065 48.0722 966.59 47.8911L979.387 46.3727C995.911 44.412 1008.94 31.384 1010.9 14.8598L1012.42 2.063Z" fill="#080808"/>
</svg>
