<svg width="480" height="512" viewBox="0 0 480 512" fill="none" xmlns="http://www.w3.org/2000/svg">
<g filter="url(#filter0_d_891_56)">
<path d="M60.9372 144.894C54.5372 131.294 75.2705 82.5602 86.4372 59.8936C-30.3628 183.094 19.7706 311.227 59.9373 359.894C84.4373 397.894 136.437 404.394 114.937 340.894C99.7706 310.394 88.4373 201.894 162.937 156.394C175.862 148.5 205.237 129.594 248.437 134.394C267.437 140.394 266.437 151.894 215.937 218.394C178.771 266.727 114.437 375.194 154.437 422.394C194.437 469.594 283.104 451.394 322.437 436.394C342.604 428.727 391.737 401.894 426.937 355.894C484.437 277.894 466.104 176.727 447.437 133.394C433.937 99.3935 384.537 26.3935 294.937 6.39354C205.337 -13.6064 142.604 18.0602 122.437 36.3935C93.4373 76.3935 128.937 77.299 146.437 65.8935C226.837 13.4935 296.271 21.0602 320.937 31.3935C411.337 61.7935 427.604 154.06 424.437 196.394C412.437 273.894 393.437 291.394 354.437 332.894C333.437 353.727 277.837 392.994 223.437 383.394C169.037 373.794 183.437 314.727 197.437 286.394C219.037 237.194 295.937 168.394 325.437 137.894C392.937 61.8935 286.937 35.8935 221.937 57.3936C193.437 65.3936 134.437 105.894 98.4373 140.394C93.2199 145.394 89.4373 147.894 82.9373 151.894C78.2706 155.227 67.3372 158.494 60.9372 144.894Z" fill="#602B95"/>
</g>
<defs>
<filter id="filter0_d_891_56" x="0" y="0" width="479.756" height="511.745" filterUnits="userSpaceOnUse" color-interpolation-filters="sRGB">
<feFlood flood-opacity="0" result="BackgroundImageFix"/>
<feColorMatrix in="SourceAlpha" type="matrix" values="0 0 0 0 0 0 0 0 0 0 0 0 0 0 0 0 0 0 127 0" result="hardAlpha"/>
<feOffset dy="45"/>
<feGaussianBlur stdDeviation="7"/>
<feComposite in2="hardAlpha" operator="out"/>
<feColorMatrix type="matrix" values="0 0 0 0 0 0 0 0 0 0 0 0 0 0 0 0 0 0 0.25 0"/>
<feBlend mode="normal" in2="BackgroundImageFix" result="effect1_dropShadow_891_56"/>
<feBlend mode="normal" in="SourceGraphic" in2="effect1_dropShadow_891_56" result="shape"/>
</filter>
</defs>
</svg>
