<svg width="5262" height="5262" viewBox="0 0 5262 5262" fill="none" xmlns="http://www.w3.org/2000/svg">
<g clip-path="url(#clip0_1702_2)">
<rect width="5262" height="5262" rx="1545" fill="#F8F8F8" fill-opacity="0.972549"/>
<g opacity="0.8">
<path d="M4368.51 918.67H701.396L2313.32 2127.61L862.581 4303.69L4247.62 4344L2898.75 3087.98L4368.51 918.67ZM4368.51 918.67L3340.91 1523.15" stroke="black" stroke-width="29"/>
<path fill-rule="evenodd" clip-rule="evenodd" d="M2806.29 3097.01C3842.7 2818.19 4602.97 2356.6 4504.42 2066.02C4405.86 1775.45 3485.78 1765.93 2449.37 2044.75C1412.95 2323.58 652.667 2785.16 751.238 3075.75C849.794 3366.32 1769.87 3375.84 2806.29 3097.01ZM2760.79 3045.71C3745.39 2780.83 4440.31 2335.91 4355.71 2086.48C4271.11 1837.05 3240.45 1874.6 2255.87 2139.48C1271.28 2404.37 712.586 2814.41 797.184 3063.84C881.797 3313.27 1776.2 3310.59 2760.79 3045.71Z" fill="black"/>
<mask id="mask0_1702_2" style="mask-type:luminance" maskUnits="userSpaceOnUse" x="742" y="1841" width="3772" height="1460">
<path fill-rule="evenodd" clip-rule="evenodd" d="M2806.29 3097.01C3842.7 2818.19 4602.97 2356.6 4504.41 2066.02C4405.86 1775.45 3485.78 1765.93 2449.37 2044.75C1412.95 2323.58 652.666 2785.16 751.237 3075.75C849.793 3366.32 1769.87 3375.84 2806.29 3097.01ZM2760.79 3045.71C3745.39 2780.82 4440.31 2335.91 4355.71 2086.48C4271.11 1837.05 3240.45 1874.6 2255.87 2139.48C1271.28 2404.37 712.585 2814.41 797.183 3063.84C881.796 3313.27 1776.2 3310.59 2760.79 3045.71Z" fill="black"/>
</mask>
<g mask="url(#mask0_1702_2)">
<path d="M4483.62 2073.08C4504.55 2134.78 4481.4 2210.02 4409.52 2296.44C4338.12 2382.28 4222.23 2474.45 4069.56 2567.15C3764.52 2752.35 3317.4 2936.75 2800.57 3075.8L2812 3118.24C3331.58 2978.45 3782.81 2792.64 4092.36 2604.7C4246.99 2510.83 4367.48 2415.69 4443.29 2324.54C4518.64 2233.98 4553.57 2142.55 4525.23 2058.97L4483.62 2073.08ZM2455.08 2065.96C2971.88 1926.93 3458.95 1860 3828.36 1863.82C4013.2 1865.74 4167.38 1885.37 4280.76 1921.82C4395.12 1958.59 4462.42 2010.6 4483.62 2073.08L4525.23 2058.97C4497.13 1976.16 4412.46 1918.01 4294.21 1879.99C4174.96 1841.65 4015.87 1821.83 3828.82 1819.9C3454.44 1816.02 2963.27 1883.74 2443.65 2023.53L2455.08 2065.96ZM772.034 3068.69C751.105 3006.98 774.246 2931.74 846.131 2845.33C917.533 2759.48 1033.42 2667.31 1186.09 2574.62C1491.13 2389.41 1938.25 2205.01 2455.08 2065.96L2443.65 2023.53C1924.07 2163.31 1472.84 2349.12 1163.29 2537.06C1008.65 2630.93 888.166 2726.08 812.342 2817.22C737.015 2907.78 702.083 2999.22 730.424 3082.79L772.034 3068.69ZM2800.57 3075.8C2283.77 3214.83 1796.7 3281.76 1427.29 3277.93C1242.45 3276.02 1088.27 3256.4 974.888 3219.94C860.528 3183.18 793.228 3131.17 772.034 3068.69L730.424 3082.79C758.516 3165.6 843.187 3223.75 961.443 3261.77C1080.69 3300.12 1239.78 3319.93 1426.84 3321.87C1801.21 3325.75 2292.38 3258.02 2812 3118.24L2800.57 3075.8ZM4334.91 2093.54C4352.18 2144.46 4331.2 2210.75 4263.9 2290.12C4197.39 2368.54 4089.87 2454.4 3947.72 2541.56C3663.71 2715.72 3245.88 2892.46 2755.08 3024.5L2766.49 3066.93C3260.3 2934.09 3682.23 2755.9 3970.68 2579.03C4114.76 2490.68 4226.64 2401.98 4297.41 2318.54C4367.37 2236.05 4401.54 2153.19 4376.52 2079.42L4334.91 2093.54ZM2261.57 2160.69C2752.47 2028.63 3254.57 1953.33 3643.92 1942.06C3838.73 1936.44 4004.24 1946.87 4125.63 1973.73C4186.35 1987.16 4234.98 2004.49 4270.49 2025.24C4306.03 2046.01 4326.62 2069.12 4334.91 2093.54L4376.52 2079.42C4363.65 2041.47 4333.52 2011.18 4292.65 1987.31C4251.76 1963.4 4198.3 1944.8 4135.12 1930.83C4008.7 1902.86 3839.14 1892.47 3642.64 1898.15C3249.37 1909.53 2743.85 1985.45 2250.16 2118.26L2261.57 2160.69ZM817.995 3056.78C800.082 3004.01 814.919 2939.14 868.789 2864.25C922.498 2789.6 1012.78 2708.41 1137.7 2625.78C1387.3 2460.67 1770.75 2292.75 2261.57 2160.69L2250.16 2118.26C1756.38 2251.11 1368.19 2420.64 1113.46 2589.13C986.21 2673.3 891.14 2757.95 833.125 2838.59C775.271 2919.01 751.983 2998.95 776.384 3070.88L817.995 3056.78ZM2755.08 3024.5C2264.17 3156.57 1796.32 3223.09 1441.33 3225.67C1263.69 3226.96 1115.45 3212.22 1007.08 3182.3C896.998 3151.91 835.337 3107.94 817.995 3056.78L776.384 3070.88C801.327 3144.44 883.201 3193.68 995.379 3224.66C1109.27 3256.1 1262.03 3270.91 1441.66 3269.61C1801.17 3266.99 2272.82 3199.74 2766.49 3066.93L2755.08 3024.5Z" fill="black"/>
</g>
<path d="M4368.51 918.67H1668.55L781.996 1926.11H2756.59C2950.01 1958.35 2931.21 2114.17 2877.48 2208.21L781.996 4344H3481.96L4368.51 3376.85H2353.61C2160.19 3344.61 2219.29 3175.36 2273.01 3094.76L4368.51 918.67Z" fill="black"/>
</g>
</g>
<defs>
<clipPath id="clip0_1702_2">
<rect width="5262" height="5262" fill="white"/>
</clipPath>
</defs>
</svg>
