<svg width="5262" height="5262" viewBox="0 0 5262 5262" fill="none" xmlns="http://www.w3.org/2000/svg">
    <rect width="5262" height="5262" rx="2631" fill="#F8F8F8" />
    <g opacity="0.8">
        <path
            d="M3809.75 1462H1306L2406.55 2287.41L1416.05 3773.15L3727.21 3800.67L2806.26 2943.11L3809.75 1462ZM3809.75 1462L3108.15 1874.71"
            stroke="black" stroke-width="29" />
        <mask id="path-3-inside-1_20_25" fill="white">
            <path fill-rule="evenodd" clip-rule="evenodd"
                d="M2743.13 2949.28C3450.75 2758.91 3969.83 2443.76 3902.54 2245.36C3835.25 2046.97 3207.06 2040.47 2499.44 2230.84C1791.82 2421.21 1272.73 2736.36 1340.03 2934.76C1407.32 3133.15 2035.51 3139.65 2743.13 2949.28ZM2712.07 2914.25C3384.31 2733.4 3858.77 2429.63 3801.01 2259.33C3743.25 2089.03 3039.56 2114.67 2367.33 2295.52C1695.09 2476.37 1313.64 2756.33 1371.4 2926.63C1429.17 3096.93 2039.83 3095.1 2712.07 2914.25Z" />
        </mask>
        <path fill-rule="evenodd" clip-rule="evenodd"
            d="M2743.13 2949.28C3450.75 2758.91 3969.83 2443.76 3902.54 2245.36C3835.25 2046.97 3207.06 2040.47 2499.44 2230.84C1791.82 2421.21 1272.73 2736.36 1340.03 2934.76C1407.32 3133.15 2035.51 3139.65 2743.13 2949.28ZM2712.07 2914.25C3384.31 2733.4 3858.77 2429.63 3801.01 2259.33C3743.25 2089.03 3039.56 2114.67 2367.33 2295.52C1695.09 2476.37 1313.64 2756.33 1371.4 2926.63C1429.17 3096.93 2039.83 3095.1 2712.07 2914.25Z"
            fill="black" />
        <path
            d="M3902.54 2245.36L3888.34 2250.18V2250.18L3902.54 2245.36ZM2743.13 2949.28L2747.03 2963.77L2743.13 2949.28ZM1340.03 2934.76L1325.82 2939.57H1325.82L1340.03 2934.76ZM3801.01 2259.33L3815.22 2254.51V2254.51L3801.01 2259.33ZM2712.07 2914.25L2708.17 2899.77L2712.07 2914.25ZM2367.33 2295.52L2363.43 2281.03L2367.33 2295.52ZM1371.4 2926.63L1385.61 2921.81L1371.4 2926.63ZM3888.34 2250.18C3902.63 2292.31 3886.83 2343.68 3837.75 2402.68C3789 2461.29 3709.88 2524.22 3605.64 2587.51C3397.37 2713.96 3092.1 2839.86 2739.23 2934.8L2747.03 2963.77C3101.78 2868.33 3409.86 2741.47 3621.21 2613.15C3726.78 2549.06 3809.05 2484.1 3860.81 2421.87C3912.25 2360.04 3936.1 2297.61 3916.75 2240.55L3888.34 2250.18ZM2503.34 2245.32C2856.19 2150.4 3188.74 2104.7 3440.96 2107.31C3567.16 2108.62 3672.43 2122.02 3749.84 2146.91C3827.92 2172.01 3873.87 2207.52 3888.34 2250.18L3916.75 2240.55C3897.57 2184.01 3839.76 2144.31 3759.02 2118.35C3677.6 2092.17 3568.98 2078.64 3441.27 2077.32C3185.66 2074.67 2850.31 2120.91 2495.54 2216.35L2503.34 2245.32ZM1354.23 2929.94C1339.94 2887.81 1355.74 2836.44 1404.82 2777.44C1453.57 2718.83 1532.69 2655.9 1636.93 2592.61C1845.2 2466.16 2150.47 2340.26 2503.34 2245.32L2495.54 2216.35C2140.79 2311.79 1832.71 2438.65 1621.36 2566.97C1515.78 2631.06 1433.52 2696.02 1381.75 2758.25C1330.32 2820.08 1306.47 2882.51 1325.82 2939.57L1354.23 2929.94ZM2739.23 2934.8C2386.38 3029.72 2053.83 3075.42 1801.61 3072.8C1675.41 3071.5 1570.14 3058.1 1492.73 3033.21C1414.65 3008.11 1368.7 2972.6 1354.23 2929.94L1325.82 2939.57C1345 2996.11 1402.81 3035.81 1483.55 3061.77C1564.97 3087.95 1673.59 3101.48 1801.3 3102.8C2056.91 3105.45 2392.26 3059.21 2747.03 2963.77L2739.23 2934.8ZM3786.81 2264.15C3798.6 2298.92 3784.28 2344.18 3738.33 2398.37C3692.92 2451.91 3619.51 2510.53 3522.45 2570.04C3328.54 2688.95 3043.27 2809.62 2708.17 2899.77L2715.96 2928.74C3053.11 2838.04 3341.19 2716.38 3538.13 2595.62C3636.5 2535.3 3712.89 2474.74 3761.21 2417.77C3808.97 2361.45 3832.3 2304.88 3815.22 2254.51L3786.81 2264.15ZM2371.22 2310C2706.39 2219.83 3049.2 2168.42 3315.03 2160.73C3448.04 2156.89 3561.04 2164.01 3643.92 2182.35C3685.38 2191.52 3718.58 2203.35 3742.83 2217.52C3767.09 2231.7 3781.15 2247.48 3786.81 2264.15L3815.22 2254.51C3806.43 2228.6 3785.86 2207.92 3757.96 2191.62C3730.04 2175.3 3693.54 2162.6 3650.4 2153.06C3564.09 2133.96 3448.32 2126.87 3314.16 2130.75C3045.65 2138.52 2700.5 2190.35 2363.43 2281.03L2371.22 2310ZM1385.61 2921.81C1373.38 2885.78 1383.51 2841.49 1420.29 2790.36C1456.96 2739.39 1518.6 2683.96 1603.89 2627.54C1774.31 2514.81 2036.11 2400.16 2371.22 2310L2363.43 2281.03C2026.3 2371.73 1761.26 2487.48 1587.34 2602.52C1500.46 2659.99 1435.55 2717.78 1395.94 2772.84C1356.44 2827.75 1340.54 2882.33 1357.2 2931.44L1385.61 2921.81ZM2708.17 2899.77C2373 2989.94 2053.57 3035.36 1811.2 3037.12C1689.91 3038 1588.7 3027.94 1514.71 3007.51C1439.55 2986.76 1397.45 2956.74 1385.61 2921.81L1357.2 2931.44C1374.23 2981.66 1430.13 3015.28 1506.72 3036.43C1584.48 3057.9 1688.78 3068.01 1811.42 3067.12C2056.88 3065.33 2378.9 3019.42 2715.96 2928.74L2708.17 2899.77Z"
            fill="black" mask="url(#path-3-inside-1_20_25)" />
        <path
            d="M3809.75 1462H1966.33L1361.03 2149.84H2709.2C2841.26 2171.85 2828.42 2278.24 2791.74 2342.44L1361.03 3800.67H3204.45L3809.75 3140.34H2434.06C2302 3118.33 2342.35 3002.77 2379.03 2947.74L3809.75 1462Z"
            fill="black" />
    </g>
</svg>